<svg xmlns="http://www.w3.org/2000/svg" xmlns:xlink="http://www.w3.org/1999/xlink" width="981.871" height="77.111" viewBox="0 0 981.871 77.111">
  <defs>
    <linearGradient id="linear-gradient" x1="0.5" y1="1.25" x2="0.5" y2="-0.25" gradientUnits="objectBoundingBox">
      <stop offset="0" stop-color="#fff"/>
      <stop offset="1" stop-color="#fff"/>
    </linearGradient>
  </defs>
  <g id="大麵包屑" transform="translate(1 0.4)">
    <path id="GREY" d="M981.645,467.3l-32.3-32.3H633.085a4.069,4.069,0,0,0-4.069,4.069v55.606a4.069,4.069,0,0,0,4.069,4.069H950.2Z" transform="translate(-1.481 -425.268)" stroke="#8e8f8f" stroke-width="1" fill="url(#linear-gradient)"/>
    <path id="GREY-2" data-name="GREY" d="M517.645,467.3l-32.3-32.3H169.085a4.069,4.069,0,0,0-4.069,4.069v55.606a4.069,4.069,0,0,0,4.069,4.069H486.2Z" transform="translate(145.12 -425.268)" fill="#fff" stroke="#e4955a" stroke-width="1"/>
    <path id="Path_519" data-name="Path 519" d="M648.664,1H0" transform="translate(305.781 8.735)" fill="none" stroke="#fff" stroke-width="2.5"/>
    <path id="LIGHT" d="M747.645,469.565,715.345,435H399.085a4.219,4.219,0,0,0-4.069,4.355v59.5a4.219,4.219,0,0,0,4.069,4.354H716.2Z" transform="translate(-395.016 -429.733)" stroke="#99999a" stroke-width="1" fill="url(#linear-gradient)"/>
    <g id="STEP1" transform="translate(36.736 30.957)">
      <g id="Step_1_copy" data-name="Step 1  copy" transform="translate(0 0)">
        <path id="Gradient_Overlay" data-name="Gradient Overlay" d="M10.494,14.377a1.9,1.9,0,0,0-.719-1.582A8.93,8.93,0,0,0,7.25,11.622,24.221,24.221,0,0,1,4.3,10.448Q.566,8.616.566,5.412A4.516,4.516,0,0,1,1.5,2.6,6.012,6.012,0,0,1,4.126.7,10.235,10.235,0,0,1,7.949.02,8.953,8.953,0,0,1,11.66.758a5.876,5.876,0,0,1,2.551,2.1,5.491,5.491,0,0,1,.91,3.118H10.507A2.32,2.32,0,0,0,9.788,4.16a2.8,2.8,0,0,0-1.945-.646,3.158,3.158,0,0,0-1.958.547,1.678,1.678,0,0,0-.719,1.391A1.69,1.69,0,0,0,5.958,6.79,9.975,9.975,0,0,0,8.74,8.029a17.041,17.041,0,0,1,3.27,1.378,5.494,5.494,0,0,1,3.111,4.944,4.687,4.687,0,0,1-1.9,3.955,8.444,8.444,0,0,1-5.208,1.437,10.332,10.332,0,0,1-4.225-.837A6.371,6.371,0,0,1,.942,16.612a5.977,5.977,0,0,1-.956-3.355H4.627a2.944,2.944,0,0,0,.8,2.274,3.77,3.77,0,0,0,2.591.732,2.978,2.978,0,0,0,1.813-.494A1.632,1.632,0,0,0,10.494,14.377ZM32.563,3.857H26.8V19.479H22.174V3.857H16.518V.284H32.563Zm13.856,7.475H39.141V15.92h8.6v3.56H34.514V.284h13.25V3.857H39.141V7.9h7.277Zm7.831,1.635v6.513H49.622V.284h7.66a8.921,8.921,0,0,1,3.9.811A6.11,6.11,0,0,1,63.8,3.4,6.3,6.3,0,0,1,64.731,6.8a5.554,5.554,0,0,1-2.011,4.489A8.342,8.342,0,0,1,57.2,12.966Zm0-3.573h3.032a2.86,2.86,0,0,0,2.05-.672,2.5,2.5,0,0,0,.705-1.9,3.088,3.088,0,0,0-.725-2.149,2.568,2.568,0,0,0-1.978-.817H54.25ZM83.491,19.479H79.035V5.294L74.658,6.572V3.2L83.082.284h.409Z" transform="translate(0 0)" fill="#99999a"/>
      </g>
    </g>
    <g id="STEP2" transform="translate(348.488 30.958)">
      <g id="Step_2" data-name="Step 2" transform="translate(41.952 0)">
        <path id="Gradient_Overlay-2" data-name="Gradient Overlay" d="M10.494,14.39a1.9,1.9,0,0,0-.719-1.582A8.93,8.93,0,0,0,7.25,11.635,24.221,24.221,0,0,1,4.3,10.462Q.566,8.629.566,5.426A4.516,4.516,0,0,1,1.5,2.611a6.012,6.012,0,0,1,2.63-1.9A10.235,10.235,0,0,1,7.949.033,8.953,8.953,0,0,1,11.66.772a5.876,5.876,0,0,1,2.551,2.1,5.491,5.491,0,0,1,.91,3.118H10.507a2.32,2.32,0,0,0-.719-1.819,2.8,2.8,0,0,0-1.945-.646,3.158,3.158,0,0,0-1.958.547,1.678,1.678,0,0,0-.719,1.391A1.69,1.69,0,0,0,5.958,6.8,9.975,9.975,0,0,0,8.74,8.043,17.041,17.041,0,0,1,12.01,9.42a5.494,5.494,0,0,1,3.111,4.944,4.687,4.687,0,0,1-1.9,3.955,8.444,8.444,0,0,1-5.208,1.437,10.332,10.332,0,0,1-4.225-.837A6.371,6.371,0,0,1,.942,16.625,5.977,5.977,0,0,1-.014,13.27H4.627a2.944,2.944,0,0,0,.8,2.274,3.77,3.77,0,0,0,2.591.732,2.978,2.978,0,0,0,1.813-.494A1.632,1.632,0,0,0,10.494,14.39ZM32.563,3.87H26.8V19.492H22.174V3.87H16.518V.3H32.563Zm13.856,7.475H39.141v4.588h8.6v3.56H34.514V.3h13.25V3.87H39.141V7.917h7.277ZM54.25,12.98v6.513H49.622V.3h7.66a8.921,8.921,0,0,1,3.9.811A6.11,6.11,0,0,1,63.8,3.415a6.3,6.3,0,0,1,.929,3.395A5.554,5.554,0,0,1,62.72,11.3,8.342,8.342,0,0,1,57.2,12.98Zm0-3.573h3.032a2.86,2.86,0,0,0,2.05-.672,2.5,2.5,0,0,0,.705-1.9,3.088,3.088,0,0,0-.725-2.149,2.568,2.568,0,0,0-1.978-.817H54.25ZM87.037,19.492H73.643v-2.9l6.17-6.486q2.281-2.6,2.281-4.126a2.87,2.87,0,0,0-.541-1.885,1.93,1.93,0,0,0-1.569-.646,1.954,1.954,0,0,0-1.648.864A3.549,3.549,0,0,0,77.7,6.467H73.247A6.3,6.3,0,0,1,74.131,3.2,6.194,6.194,0,0,1,76.583.864,7.284,7.284,0,0,1,80.09.02a7.166,7.166,0,0,1,4.792,1.437,5.13,5.13,0,0,1,1.681,4.126,5.992,5.992,0,0,1-.422,2.208,9.684,9.684,0,0,1-1.312,2.254A33.043,33.043,0,0,1,81.962,13.2l-2.479,2.861h7.554Z" transform="translate(0 0)" fill="#e4955a"/>
      </g>
    </g>
    <g id="STEP3" transform="translate(730.533 31.276)">
      <g id="Step_3" data-name="Step 3" transform="translate(-32.515 0)">
        <path id="Gradient_Overlay-3" data-name="Gradient Overlay" d="M10.878,14.883a1.972,1.972,0,0,0-.745-1.641,9.261,9.261,0,0,0-2.618-1.217,25.118,25.118,0,0,1-3.062-1.217Q.583,8.908.583,5.586a4.683,4.683,0,0,1,.964-2.919A6.234,6.234,0,0,1,4.275.7a10.614,10.614,0,0,1,3.965-.7A9.285,9.285,0,0,1,12.088.76,6.093,6.093,0,0,1,14.734,2.94a5.7,5.7,0,0,1,.943,3.233H10.892a2.406,2.406,0,0,0-.745-1.887,2.9,2.9,0,0,0-2.017-.67,3.275,3.275,0,0,0-2.03.567,1.741,1.741,0,0,0-.745,1.442,1.753,1.753,0,0,0,.82,1.388A10.345,10.345,0,0,0,9.06,8.3,17.672,17.672,0,0,1,12.45,9.728a5.7,5.7,0,0,1,3.227,5.127,4.861,4.861,0,0,1-1.969,4.1,8.757,8.757,0,0,1-5.4,1.49,10.714,10.714,0,0,1-4.382-.868A6.606,6.606,0,0,1,.973,17.2a6.2,6.2,0,0,1-.991-3.479H4.794a3.053,3.053,0,0,0,.827,2.358,3.91,3.91,0,0,0,2.687.759,3.088,3.088,0,0,0,1.88-.513A1.692,1.692,0,0,0,10.878,14.883ZM33.765,3.973H27.79v16.2h-4.8V3.973H17.126V.267H33.765Zm14.369,7.752H40.587v4.758H49.5v3.691H35.788V.267h13.74V3.973H40.587v4.2h7.547Zm8.121,1.7v6.754h-4.8V.267H59.4a9.252,9.252,0,0,1,4.04.841A6.337,6.337,0,0,1,66.16,3.5a6.534,6.534,0,0,1,.964,3.521,5.76,5.76,0,0,1-2.085,4.655,8.651,8.651,0,0,1-5.722,1.743Zm0-3.705H59.4a2.966,2.966,0,0,0,2.126-.7,2.591,2.591,0,0,0,.731-1.969,3.2,3.2,0,0,0-.752-2.229,2.663,2.663,0,0,0-2.051-.848h-3.2ZM80.577,8.293h2.174a2.26,2.26,0,0,0,2.584-2.529,2.187,2.187,0,0,0-.615-1.606,2.333,2.333,0,0,0-1.736-.622,2.5,2.5,0,0,0-1.593.533,1.627,1.627,0,0,0-.677,1.326H76.107a4.716,4.716,0,0,1,.875-2.8A5.778,5.778,0,0,1,79.408.671,8.3,8.3,0,0,1,82.82-.02,8.152,8.152,0,0,1,88.042,1.5a5.045,5.045,0,0,1,1.9,4.17,4.2,4.2,0,0,1-.786,2.427,5.6,5.6,0,0,1-2.29,1.853,5.352,5.352,0,0,1,2.488,1.743,4.591,4.591,0,0,1,.9,2.892,5.137,5.137,0,0,1-2.051,4.266,8.512,8.512,0,0,1-5.387,1.6,8.828,8.828,0,0,1-3.63-.745,5.687,5.687,0,0,1-2.536-2.064,5.367,5.367,0,0,1-.861-3h4.635a2.075,2.075,0,0,0,.738,1.586,2.606,2.606,0,0,0,1.818.67,2.73,2.73,0,0,0,1.941-.677,2.262,2.262,0,0,0,.725-1.729,2.644,2.644,0,0,0-.752-2.133,3.143,3.143,0,0,0-2.078-.629H80.577Z" transform="translate(0 0)" fill="#99999a"/>
      </g>
    </g>
    <line id="Line_593" data-name="Line 593" x1="328.626" transform="translate(0 5.27)" fill="none" stroke="#fff" stroke-width="2"/>
    <line id="Line_594" data-name="Line 594" y2="77.111" transform="translate(0 -0.4)" fill="none" stroke="#fff" stroke-width="2"/>
  </g>
</svg>
