<svg id="cart-info-icon" xmlns="http://www.w3.org/2000/svg" width="12.316" height="10.852" viewBox="0 0 12.316 10.852">
  <path id="Path_434" data-name="Path 434" d="M6.756,1.35a.7.7,0,0,1,1.213,0L13.426,10.8a.7.7,0,0,1-.606,1.05H1.905A.7.7,0,0,1,1.3,10.8Z" transform="translate(-1.204 -1)" fill="#f6c244"/>
  <path id="Path_435" data-name="Path 435" d="M9,7.479c0,1.867.078,2.1.7,2.1s.7-.233.7-2.1-.078-2.1-.7-2.1S9,5.612,9,7.479Zm.067,3.763a.729.729,0,0,0,.634.613.729.729,0,0,0,.634-.613A.341.341,0,0,0,10.293,11a.728.728,0,0,0-1.185,0A.341.341,0,0,0,9.067,11.243Z" transform="translate(-3.542 -2.313)" fill="#594138" fill-rule="evenodd"/>
</svg>
