<svg id="google_pay" xmlns="http://www.w3.org/2000/svg" width="38" height="24" viewBox="0 0 38 24">
  <path id="Path_509" data-name="Path 509" d="M35,0H3A2.946,2.946,0,0,0,0,3V21a3.009,3.009,0,0,0,3,3H35a2.946,2.946,0,0,0,3-3V3A3.009,3.009,0,0,0,35,0Z" opacity="0.07"/>
  <path id="Path_510" data-name="Path 510" d="M35,1a2.006,2.006,0,0,1,2,2V21a2.006,2.006,0,0,1-2,2H3a2.006,2.006,0,0,1-2-2V3A2.006,2.006,0,0,1,3,1H35" fill="#fff"/>
  <path id="Path_511" data-name="Path 511" d="M18.093,11.976v3.2H17.075v-7.9h2.691a2.447,2.447,0,0,1,1.747.692,2.28,2.28,0,0,1,.11,3.224l-.11.116a2.448,2.448,0,0,1-1.747.674Zm0-3.732v2.788h1.7a1.348,1.348,0,0,0,1-.4,1.391,1.391,0,0,0-1-2.354Zm6.484,1.348a2.538,2.538,0,0,1,1.778.613A2.137,2.137,0,0,1,27,11.854v3.334h-.969v-.766h-.049a1.93,1.93,0,0,1-1.673.931,2.17,2.17,0,0,1-1.5-.533A1.667,1.667,0,0,1,22.2,13.5a1.606,1.606,0,0,1,.613-1.336,2.746,2.746,0,0,1,1.7-.515,2.989,2.989,0,0,1,1.49.331v-.208a1.134,1.134,0,0,0-.417-.9,1.416,1.416,0,0,0-.98-.368,1.545,1.545,0,0,0-1.319.717l-.9-.564a2.488,2.488,0,0,1,2.182-1.06ZM23.29,13.52a.79.79,0,0,0,.337.662,1.224,1.224,0,0,0,.785.263,1.636,1.636,0,0,0,1.146-.472,1.512,1.512,0,0,0,.478-1.1,2.047,2.047,0,0,0-1.324-.374,1.716,1.716,0,0,0-1.03.294A.883.883,0,0,0,23.29,13.52Zm9.286-3.75-3.39,7.79H28.138l1.281-2.728L27.195,9.77h1.1l1.612,3.885L31.479,9.77h1.1Z" fill="#5f6368"/>
  <path id="Path_512" data-name="Path 512" d="M13.986,11.284a5.784,5.784,0,0,0-.073-.92H9.623v1.747h2.451a2.1,2.1,0,0,1-.9,1.373v1.134h1.464A4.433,4.433,0,0,0,13.986,11.284Z" fill="#4285f4"/>
  <path id="Path_513" data-name="Path 513" d="M9.629,15.721a4.352,4.352,0,0,0,3.01-1.1l-1.466-1.14a2.752,2.752,0,0,1-4.094-1.44h-1.5v1.17a4.53,4.53,0,0,0,4.052,2.507Z" fill="#34a853"/>
  <path id="Path_514" data-name="Path 514" d="M7.079,12.05a2.709,2.709,0,0,1,0-1.735V9.145h-1.5a4.505,4.505,0,0,0,0,4.075Z" fill="#fbbc04"/>
  <path id="Path_515" data-name="Path 515" d="M9.629,8.44a2.452,2.452,0,0,1,1.74.68l1.3-1.293A4.37,4.37,0,0,0,9.6,6.644a4.53,4.53,0,0,0-4.027,2.5l1.5,1.171A2.715,2.715,0,0,1,9.629,8.44Z" fill="#ea4335"/>
</svg>
