<svg id="jcb" xmlns="http://www.w3.org/2000/svg" width="38" height="24" viewBox="0 0 38 24">
  <g id="Group_15943" data-name="Group 15943">
    <path id="Path_503" data-name="Path 503" d="M35,0H3A2.946,2.946,0,0,0,0,3V21a3.009,3.009,0,0,0,3,3H35a2.946,2.946,0,0,0,3-3V3A3.009,3.009,0,0,0,35,0Z" opacity="0.07"/>
    <path id="Path_504" data-name="Path 504" d="M35,1a2.006,2.006,0,0,1,2,2V21a2.006,2.006,0,0,1-2,2H3a2.006,2.006,0,0,1-2-2V3A2.006,2.006,0,0,1,3,1H35" fill="#fff"/>
  </g>
  <path id="Path_505" data-name="Path 505" d="M11.5,5H15V16.5A2.5,2.5,0,0,1,12.5,19H9V7.5A2.5,2.5,0,0,1,11.5,5Z" fill="#006ebc" fill-rule="evenodd"/>
  <path id="Path_506" data-name="Path 506" d="M18.5,5H22V16.5A2.5,2.5,0,0,1,19.5,19H16V7.5A2.5,2.5,0,0,1,18.5,5Z" fill="#f00036" fill-rule="evenodd"/>
  <path id="Path_507" data-name="Path 507" d="M25.5,5H29V16.5A2.5,2.5,0,0,1,26.5,19H23V7.5A2.5,2.5,0,0,1,25.5,5Z" fill="#2ab419" fill-rule="evenodd"/>
  <path id="Path_508" data-name="Path 508" d="M10.755,14.5A3.391,3.391,0,0,1,8.1,13.513l.78-.676c.068,1.133,3.545,1.24,3.545-.19V9.5h1.8v3.147c0,.728-.574,1.322-1.573,1.632A8.1,8.1,0,0,1,10.755,14.5Zm8.116,0a4.939,4.939,0,0,1-1.965-.366,2.159,2.159,0,0,1-1.3-2.2A2.128,2.128,0,0,1,17.074,9.77,4.958,4.958,0,0,1,21,10.04v.972a3.068,3.068,0,0,0-2.919-.46A1.65,1.65,0,0,0,17.337,12a1.683,1.683,0,0,0,.744,1.5A3.078,3.078,0,0,0,21,13.056v1.01A4.413,4.413,0,0,1,18.871,14.5Zm8.679-2.587a1.145,1.145,0,0,0,.582-1.005,1.232,1.232,0,0,0-.348-.939A1.658,1.658,0,0,0,26.546,9.5H23v5h3.546a1.951,1.951,0,0,0,1.315-.415,1.169,1.169,0,0,0,.426-.96,1.286,1.286,0,0,0-.737-1.212Zm-1.906-.281H24.216V10.188h1.5a.723.723,0,1,1-.067,1.444Zm.288,2.157H24.216V12.276h1.716A.757.757,0,1,1,25.932,13.789Z" fill="#fff"/>
</svg>
