<svg id="Component_35_1" data-name="Component 35 – 1" xmlns="http://www.w3.org/2000/svg" width="34.494" height="33.995" viewBox="0 0 34.494 33.995">
  <g id="Group_16059" data-name="Group 16059" transform="matrix(0.839, 0.545, -0.545, 0.839, 22.263, -14.232)">
    <path id="Path_449" data-name="Path 449" d="M184.791,97.922a.75.75,0,1,0,.518-.864A.75.75,0,0,0,184.791,97.922Z" transform="translate(-175.535 -76.052)" fill="#e4955a"/>
    <path id="Path_450" data-name="Path 450" d="M25.416,32.347c-4.082-11.882-3.8-11.067-3.818-11.108a3.832,3.832,0,0,0-2.263-2.1c-.145-.05-8.361-1.972-8.6-2.054a2.525,2.525,0,0,0-2.45.542L1.246,24.109A3.872,3.872,0,0,0,0,26.952V38.425a2.448,2.448,0,0,0,2.439,2.452H17.5a2.448,2.448,0,0,0,2.439-2.452V37.316l4.2-1.8A2.437,2.437,0,0,0,25.416,32.347ZM17.5,39.377H2.439a.946.946,0,0,1-.939-.952V26.952a2.368,2.368,0,0,1,.761-1.739c6.032-5.55,2.3-2.088,7.065-6.479a.952.952,0,0,1,.931-.218c.3.091-.232-.346,7.422,6.7a2.368,2.368,0,0,1,.761,1.739V38.425a.946.946,0,0,1-.939.952Zm6.044-5.236-3.606,1.543V26.952A3.872,3.872,0,0,0,18.7,24.109l-5.243-4.825,5.426,1.288A2.329,2.329,0,0,1,20.21,21.81c4.074,11.859,3.8,11.063,3.817,11.1a.934.934,0,0,1-.48,1.227Z" transform="translate(0 0)" fill="#e4955a"/>
    <path id="Path_451" data-name="Path 451" d="M152.809,201.183a.75.75,0,0,0-.982.4l-3.652,8.7a.75.75,0,1,0,1.383.581l3.652-8.7A.75.75,0,0,0,152.809,201.183Z" transform="translate(-140.709 -174.945)" fill="#e4955a"/>
    <path id="Path_452" data-name="Path 452" d="M81.855,195.643a2.377,2.377,0,1,0-2.364,2.626A2.508,2.508,0,0,0,81.855,195.643Zm-2.364,1.125a1.165,1.165,0,1,1,.863-1.125A1.035,1.035,0,0,1,79.492,196.768Z" transform="translate(-73.271 -167.243)" fill="#e4955a"/>
    <path id="Path_453" data-name="Path 453" d="M230.849,312.011a2.64,2.64,0,1,0,2.364,2.626A2.508,2.508,0,0,0,230.849,312.011Zm0,3.751a1.165,1.165,0,1,1,.863-1.125A1.035,1.035,0,0,1,230.849,315.762Z" transform="translate(-217.058 -280.286)" fill="#e4955a"/>
  </g>
</svg>
