<svg id="VISA" xmlns="http://www.w3.org/2000/svg" width="38" height="24" viewBox="0 0 38 24">
  <path id="Path_497" data-name="Path 497" d="M35,0H3A2.946,2.946,0,0,0,0,3V21a3.009,3.009,0,0,0,3,3H35a2.946,2.946,0,0,0,3-3V3A3.009,3.009,0,0,0,35,0Z" opacity="0.07"/>
  <path id="Path_498" data-name="Path 498" d="M35,1a2.006,2.006,0,0,1,2,2V21a2.006,2.006,0,0,1-2,2H3a2.006,2.006,0,0,1-2-2V3A2.006,2.006,0,0,1,3,1H35" fill="#fff"/>
  <path id="Path_499" data-name="Path 499" d="M28.3,10.1H28a13.079,13.079,0,0,0-1,3h1.9A22.11,22.11,0,0,0,28.3,10.1ZM31.2,16H29.5c-.1,0-.1,0-.2-.1l-.2-.9-.1-.2H26.6c-.1,0-.2,0-.2.2l-.3.9a.1.1,0,0,1-.1.1H23.9l.2-.5L27,8.7c0-.5.3-.7.8-.7h1.5c.1,0,.2,0,.2.2l1.4,6.5a4.253,4.253,0,0,1,.2,1.1c.1.1.1.1.1.2Zm-13.4-.3.4-1.8a.349.349,0,0,1,.2.1,3.948,3.948,0,0,0,2.1.4,1.854,1.854,0,0,0,.7-.2c.5-.2.5-.7.1-1.1a5.582,5.582,0,0,0-.8-.5,4.129,4.129,0,0,1-1.1-.7,2.043,2.043,0,0,1-.1-3.1c.6-.4.9-.8,1.7-.8a13.28,13.28,0,0,1,3.1.2h.1a10.462,10.462,0,0,1-.4,1.7,4.191,4.191,0,0,0-1.5-.4,2.769,2.769,0,0,0-.9.1.52.52,0,0,0-.4.2.483.483,0,0,0,0,.7l.5.4a10.908,10.908,0,0,1,1.1.6,2.208,2.208,0,0,1,1.1,1.4,2.148,2.148,0,0,1-.9,2.3,1.816,1.816,0,0,1-1.4.6,11.689,11.689,0,0,1-3.4-.2c-.1.2-.1.2-.2.1Zm-3.5.3a4.069,4.069,0,0,1,.2-1c.5-2.2,1-4.5,1.4-6.7.1-.2.1-.3.3-.3H18a30.054,30.054,0,0,1-.7,3.2c-.3,1.5-.6,3-1,4.5,0,.2-.1.2-.3.2M5,8.2c0-.1.2-.2.3-.2H8.7a.974.974,0,0,1,1,.8l.9,4.4c0,.1,0,.1.1.2a.1.1,0,0,1,.1-.1l2.1-5.1c-.1-.1,0-.2.1-.2h2.1c0,.1,0,.1-.1.2l-3.1,7.3c-.1.2-.1.3-.2.4s-.3,0-.5,0H9.7c-.1,0-.2,0-.2-.2L7.9,9.5A2.034,2.034,0,0,0,7,8.9a6.656,6.656,0,0,0-1.9-.5Z" fill="#142688"/>
</svg>
